<?xml version="1.0" encoding="UTF-8"?>
<svg xmlns="http://www.w3.org/2000/svg" xmlns:xlink="http://www.w3.org/1999/xlink" width="16px" height="16px" viewBox="0 0 16 16" version="1.1">
  <g id="surface1">
    <path style=" stroke:none;fill-rule:nonzero;fill:rgb(0%,0%,0%);fill-opacity:1;" d="M 0 8.003906 L 0 16.007812 L 16.007812 16.007812 L 16.007812 0 L 0 0 Z M 10.859375 5.234375 C 11.449219 6.121094 11.6875 6.457031 11.714844 6.433594 C 11.730469 6.417969 12.105469 5.863281 12.546875 5.203125 L 13.34375 4.003906 L 14.183594 4 L 15.027344 4 L 13.871094 5.726562 C 13.234375 6.675781 12.714844 7.457031 12.714844 7.46875 C 12.714844 7.472656 13.296875 8.300781 14.007812 9.296875 C 14.71875 10.292969 15.300781 11.121094 15.300781 11.128906 C 15.300781 11.136719 14.925781 11.144531 14.472656 11.144531 L 13.648438 11.144531 L 12.6875 9.820312 C 12.15625 9.089844 11.707031 8.496094 11.6875 8.5 C 11.667969 8.5 11.222656 9.09375 10.699219 9.820312 L 9.742188 11.144531 L 8.914062 11.144531 C 8.25 11.144531 8.09375 11.132812 8.105469 11.105469 C 8.113281 11.082031 8.695312 10.261719 9.390625 9.28125 C 10.089844 8.300781 10.660156 7.484375 10.660156 7.464844 C 10.660156 7.449219 10.15625 6.679688 9.535156 5.757812 C 8.921875 4.832031 8.402344 4.058594 8.390625 4.039062 C 8.375 4.011719 8.546875 4 9.203125 4 L 10.035156 4 Z M 6.136719 4.097656 C 7.441406 4.363281 8.511719 5.433594 8.824219 6.789062 C 8.867188 6.980469 8.882812 7.152344 8.878906 7.605469 C 8.878906 8.117188 8.867188 8.203125 8.796875 8.476562 C 8.441406 9.796875 7.496094 10.734375 6.15625 11.085938 C 6.066406 11.109375 5.558594 11.128906 4.695312 11.140625 L 3.371094 11.160156 L 3.363281 12.582031 L 3.355469 14.007812 L 2 14.007812 L 2 10.65625 C 2 7.863281 2.011719 7.261719 2.046875 7.007812 C 2.261719 5.574219 3.363281 4.386719 4.742188 4.097656 C 5.148438 4.015625 5.722656 4.011719 6.136719 4.097656 Z M 6.136719 4.097656 "/>
    <path style=" stroke:none;fill-rule:nonzero;fill:rgb(0%,0%,0%);fill-opacity:1;" d="M 5.03125 5.46875 C 4.421875 5.617188 3.875 6.050781 3.609375 6.59375 C 3.386719 7.039062 3.378906 7.097656 3.363281 8.488281 L 3.347656 9.726562 L 4.546875 9.726562 C 5.890625 9.726562 5.933594 9.722656 6.355469 9.511719 C 6.789062 9.300781 7.082031 9.003906 7.296875 8.574219 C 7.363281 8.4375 7.445312 8.238281 7.472656 8.128906 C 7.535156 7.878906 7.542969 7.320312 7.484375 7.082031 C 7.429688 6.847656 7.238281 6.453125 7.085938 6.25 C 6.820312 5.894531 6.367188 5.597656 5.941406 5.496094 C 5.753906 5.453125 5.179688 5.4375 5.03125 5.46875 Z M 5.03125 5.46875 "/>
  </g>
</svg>
